<svg xmlns="http://www.w3.org/2000/svg" width="128" height="128" viewBox="0 0 128 128">
    <!-- Icon group: scaled 20x20 to 96x96, translated to (16, 16) -->
<!--    <g transform="translate(16,16) scale(4.8)">-->
    <g transform="translate(4,4) scale(6)">
        <rect x="0" y="0" width="20" height="20" fill="white" rx="4" ry="4"/>
        <path d="M18.5 0h-17A1.5 1.5 0 0 0 0 1.5v17A1.5 1.5 0 0 0 1.5 20h17a1.5 1.5 0 0 0 1.5-1.5v-17A1.5 1.5 0 0 0 18.5 0M6 17H3v-9h3zm-1.5-10.75c-1.347-.038-2.147-1.52-1.44-2.667s2.39-1.099 3.03.087c.138.255.21.54.21.83a1.78 1.78 0 0 1-1.8 1.75M17 17h-3v-4.74c0-1.42-.6-1.93-1.38-1.93a1.74 1.74 0 0 0-1.62 1.86.7.7 0 0 0 0 .14V17h-3v-9h2.9v1.3a3.11 3.11 0 0 1 2.7-1.4c1.55 0 3.36.86 3.36 3.66z"
              fill="#0a66c2"/>
        <path d="M 0 0 H 5" stroke="#0a66c2" stroke-width="3" transform="translate(12.94, 15) rotate(45)"/>
        <path d="M 0 0 H 6" stroke="#0a66c2" stroke-width="3" transform="translate(14, 17) rotate(-45)"/>
        <path d="M 0 0 L 2 0 L 2 2 L 0 2" fill="#0a66c2" transform="translate(16, 16)"/>
        <path d="M 0 0 L 6 0 L 6 3" stroke="white" transform="translate(18.7, 12.6) rotate(135)" stroke-width="2" fill="none" />
    </g>
</svg>
